<?xml version="1.0" encoding="UTF-8" standalone="no"?>
<!DOCTYPE svg PUBLIC "-//W3C//DTD SVG 1.1//EN" "http://www.w3.org/Graphics/SVG/1.1/DTD/svg11.dtd">
<svg width="720.00" height="720.00" viewBox="0.00 0.00 3000.00 3000.00" xmlns="http://www.w3.org/2000/svg" xmlns:xlink="http://www.w3.org/1999/xlink">
<g stroke-linecap="round" id="SVGRound_2">
<path d="M1498.18,724.02 C1517.13,724.09 1540.84,725.23 1561.69,727.17 C1578.79,728.99 1609.82,732.31 1619.32,733.96 C1677.65,744.16 1696.38,748.11 1709.12,751.79 C1723.82,756.43 1748.12,764.49 1759.96,768.74 C1777.80,775.15 1813.77,788.08 1820.59,791.35 C1831.99,796.73 1859.47,809.80 1875.56,817.50 C1883.31,821.44 1898.38,829.30 1905.69,833.22 C1922.50,842.99 1942.52,855.79 1957.57,866.31 C1970.19,875.49 1994.21,893.42 2005.61,902.18 C2017.27,911.50 2040.88,930.70 2053.01,941.78 C2065.49,953.53 2087.62,976.69 2098.27,988.54 C2109.07,1001.00 2130.37,1026.92 2140.74,1039.77 C2149.63,1051.25 2169.24,1077.03 2180.92,1094.25 C2186.97,1103.56 2206.15,1135.06 2208.85,1140.27 C2215.56,1153.72 2229.49,1181.60 2236.70,1196.04 C2238.74,1200.10 2251.59,1231.35 2258.09,1247.21 C2265.63,1266.39 2274.86,1293.04 2279.25,1307.09 C2284.83,1325.86 2290.29,1346.89 2293.34,1359.67 C2295.74,1370.65 2301.29,1404.42 2303.56,1422.27 C2305.31,1437.55 2308.75,1469.94 2310.43,1487.05 C2311.67,1503.67 2313.24,1538.90 2313.21,1552.16 C2312.92,1569.24 2311.04,1596.55 2308.93,1616.13 C2307.22,1630.47 2303.56,1659.08 2301.11,1674.88 C2298.49,1689.87 2292.85,1719.56 2289.37,1734.60 C2285.43,1749.98 2277.10,1777.85 2272.38,1792.37 C2267.29,1807.24 2255.97,1837.28 2249.75,1852.41 C2242.81,1868.02 2227.56,1899.73 2219.69,1915.62 C2213.52,1927.80 2201.00,1952.47 2196.31,1959.70 C2193.58,1963.85 2168.27,2000.89 2158.29,2015.49 C2152.52,2023.94 2133.74,2047.38 2123.03,2060.74 C2107.16,2080.54 2105.44,2082.45 2084.14,2105.28 C2076.23,2113.75 2055.79,2132.89 2048.20,2139.27 C2025.41,2158.42 1988.68,2189.04 1984.56,2192.15 C1973.43,2200.31 1943.97,2220.33 1929.70,2229.88 C1912.50,2240.80 1886.79,2255.71 1873.12,2262.53 C1859.98,2268.78 1833.53,2281.02 1820.22,2287.00 C1806.76,2292.73 1780.84,2302.76 1760.71,2309.66 C1744.08,2315.07 1713.69,2324.76 1699.93,2329.03 C1695.40,2330.33 1656.10,2337.47 1638.38,2340.66 C1613.97,2345.06 1607.46,2345.98 1585.66,2348.16 C1567.62,2349.95 1545.72,2352.12 1526.71,2353.42 C1512.38,2354.44 1476.56,2353.19 1461.30,2352.49 C1444.94,2351.39 1413.09,2348.95 1396.11,2347.11 C1384.77,2345.65 1350.68,2339.94 1335.58,2336.99 C1319.79,2333.63 1286.38,2326.13 1273.74,2322.60 C1266.58,2320.46 1230.95,2308.19 1216.07,2302.93 C1205.45,2298.96 1172.34,2285.06 1157.86,2278.79 C1144.02,2272.46 1125.38,2263.48 1109.65,2255.22 C1101.86,2251.00 1082.98,2240.43 1078.36,2237.49 C1063.74,2227.98 1044.97,2215.24 1030.33,2205.30 C1014.93,2194.72 995.01,2179.06 983.71,2170.12 C969.64,2158.64 944.80,2137.29 936.92,2130.03 C925.18,2118.84 903.55,2095.86 892.50,2083.45 C882.18,2071.43 861.76,2047.08 851.70,2034.29 C842.67,2022.26 825.13,1997.59 816.49,1984.76 C807.76,1971.45 790.17,1942.93 783.29,1930.11 C777.52,1918.55 766.22,1895.65 760.70,1884.31 C755.19,1872.46 742.96,1843.49 739.22,1833.93 C735.13,1823.40 724.48,1793.72 719.60,1779.66 C713.75,1761.10 710.10,1746.56 705.05,1723.25 C701.49,1706.00 695.01,1673.07 692.21,1655.97 C690.36,1643.10 687.07,1610.59 685.73,1596.22 C684.72,1581.79 682.98,1549.40 683.23,1535.49 C683.69,1520.55 685.60,1488.08 686.72,1471.71 C688.02,1456.87 692.08,1424.01 694.36,1409.17 C696.72,1394.67 702.89,1361.46 704.94,1351.91 C708.77,1335.56 717.40,1306.64 722.48,1291.03 C727.78,1275.71 738.48,1245.86 744.72,1230.18 C750.83,1215.82 762.90,1188.86 769.10,1175.82 C777.40,1158.76 789.97,1135.37 798.01,1122.24 C806.31,1109.11 824.44,1081.97 833.43,1068.78 C842.70,1055.83 861.54,1031.14 871.07,1019.44 C881.14,1007.53 902.57,983.59 913.38,971.73 C927.36,956.82 943.55,942.68 952.39,934.91 C965.47,923.58 988.13,904.02 998.40,895.97 C1007.85,888.98 1034.52,869.51 1044.07,862.90 C1054.19,856.08 1075.03,842.00 1085.53,836.08 C1096.92,829.80 1129.04,813.18 1138.96,808.32 C1156.86,799.66 1177.34,790.69 1196.61,782.93 C1211.24,777.22 1240.65,766.26 1255.42,761.01 C1261.74,758.87 1273.88,754.85 1281.13,753.18 C1296.56,749.88 1330.37,742.83 1348.76,739.06 C1371.08,734.55 1376.95,733.81 1400.36,731.34 C1418.46,729.42 1457.07,725.54 1470.64,724.64 C1478.37,724.29 1491.54,724.09 1498.18,724.02 Z" fill="none" stroke="rgb(255, 127, 127)" stroke-width="87.79" stroke-opacity="1.00" stroke-linejoin="round"/>
<path d="M1512.81,724.02 C1499.24,724.41 1471.16,725.58 1449.65,727.49 C1431.85,729.44 1401.22,732.89 1388.38,734.38 C1383.55,734.96 1303.57,751.40 1295.62,753.25 C1287.61,755.18 1254.81,766.53 1240.51,771.51 C1229.98,775.44 1199.77,787.62 1186.82,792.87 C1162.17,803.64 1120.28,825.36 1105.30,833.22 C1091.95,840.65 1067.41,857.07 1054.31,865.95 C1041.46,875.02 1014.83,894.55 1010.26,898.12 C999.41,906.87 972.58,930.05 959.84,941.18 C947.55,952.33 923.97,975.15 914.04,986.17 C904.78,996.96 886.23,1019.11 876.94,1030.47 C867.42,1042.51 850.69,1064.96 839.30,1081.48 C830.12,1095.30 809.50,1127.22 804.81,1135.26 C796.59,1149.75 783.79,1175.86 777.53,1188.86 C771.50,1202.34 759.36,1230.18 753.11,1245.86 C747.72,1260.39 737.26,1290.91 732.03,1306.64 C726.34,1325.22 719.52,1351.60 716.61,1366.28 C713.98,1380.47 709.03,1409.34 706.71,1424.01 C704.58,1439.78 701.41,1472.25 700.17,1487.63 C699.10,1504.46 697.75,1539.12 697.84,1551.72 C698.13,1564.08 700.46,1596.24 701.65,1610.65 C703.26,1625.52 707.02,1656.49 709.60,1672.93 C712.48,1688.36 718.73,1720.29 722.14,1735.74 C726.34,1753.19 733.22,1776.99 738.92,1793.71 C743.95,1807.75 755.44,1837.35 761.47,1852.54 C768.93,1870.36 778.86,1891.92 787.21,1908.70 C792.04,1918.21 805.00,1943.32 813.41,1957.50 C822.15,1971.64 832.39,1986.84 839.07,1996.69 C848.80,2010.19 863.96,2030.94 869.39,2038.18 C874.97,2045.70 900.50,2075.16 912.53,2088.85 C926.59,2104.81 935.07,2114.04 949.81,2127.65 C962.45,2139.13 987.25,2161.19 998.86,2170.94 C1012.52,2181.99 1036.58,2199.59 1049.77,2208.64 C1064.91,2218.59 1091.68,2236.07 1103.32,2243.59 C1110.33,2248.15 1138.99,2262.53 1154.12,2270.11 C1168.41,2277.07 1193.72,2287.96 1207.86,2293.99 C1223.58,2300.27 1252.99,2310.71 1267.54,2315.74 C1284.75,2321.55 1306.10,2327.41 1326.13,2331.95 C1341.99,2335.23 1372.95,2341.33 1388.48,2343.93 C1403.14,2346.11 1435.83,2349.68 1450.99,2350.84 C1467.83,2351.86 1498.74,2353.46 1512.81,2354.06 C1530.41,2354.24 1559.09,2352.26 1571.59,2351.20 C1586.86,2349.81 1624.33,2345.73 1636.09,2343.89 C1651.12,2341.28 1682.40,2335.56 1698.17,2332.29 C1716.63,2328.11 1744.95,2320.49 1760.13,2315.48 C1774.23,2310.44 1801.95,2300.27 1816.60,2294.42 C1830.49,2288.56 1858.23,2276.53 1871.32,2270.36 C1889.24,2261.70 1913.41,2248.99 1926.65,2241.09 C1939.70,2233.01 1966.94,2215.09 1980.01,2206.04 C1993.14,2196.59 2020.10,2175.71 2032.69,2165.67 C2050.37,2151.35 2084.95,2119.53 2091.74,2112.66 C2105.45,2098.01 2118.83,2082.59 2129.58,2070.21 C2146.39,2050.83 2155.83,2038.54 2163.05,2029.13 C2173.08,2015.76 2192.75,1987.28 2202.20,1972.68 C2209.80,1960.61 2220.64,1943.39 2227.06,1930.71 C2234.57,1915.82 2250.08,1884.54 2257.35,1868.92 C2265.40,1850.35 2275.13,1825.13 2280.35,1811.35 C2285.16,1797.66 2294.56,1770.16 2298.96,1754.15 C2301.79,1743.12 2309.33,1708.01 2312.61,1691.74 C2316.23,1672.01 2320.28,1644.31 2322.06,1629.06 C2323.52,1614.44 2326.03,1585.43 2327.08,1571.04 C2327.83,1556.13 2327.51,1524.65 2326.88,1509.18 C2325.95,1492.73 2323.37,1460.73 2321.38,1443.01 C2318.96,1425.06 2313.70,1391.27 2312.27,1383.41 C2311.19,1377.77 2299.98,1327.44 2298.71,1322.93 C2296.27,1314.24 2286.95,1287.13 2281.29,1270.68 C2274.68,1251.47 2271.18,1242.47 2263.92,1225.30 C2256.88,1209.02 2245.97,1184.14 2236.53,1164.98 C2229.73,1151.80 2217.41,1129.32 2208.21,1114.07 C2198.55,1098.62 2182.08,1074.70 2171.34,1060.15 C2162.45,1048.76 2143.16,1024.55 2132.77,1011.72 C2121.76,998.62 2099.93,974.13 2089.12,962.74 C2077.16,950.89 2055.69,931.10 2041.34,919.09 C2029.63,909.71 2006.48,891.49 1994.12,882.25 C1980.85,872.67 1954.85,854.80 1942.13,846.54 C1924.45,835.55 1900.40,822.29 1884.57,814.23 C1871.17,807.73 1843.37,794.33 1833.81,790.46 C1799.38,777.02 1752.09,761.22 1723.76,751.79 C1712.74,748.31 1709.14,747.44 1696.13,744.98 C1681.25,742.31 1650.05,736.78 1633.73,733.92 C1622.25,731.96 1590.31,729.53 1574.19,728.32 C1556.90,726.96 1520.05,724.00 1512.81,724.02 Z" fill="none" stroke="rgb(255, 127, 127)" stroke-width="87.79" stroke-opacity="1.00" stroke-linejoin="round"/>
<path d="M1494.96,365.43 C1501.39,365.44 1542.41,367.02 1558.27,367.81 C1574.17,369.00 1606.04,371.78 1622.00,373.36 C1638.01,375.35 1669.94,379.70 1685.86,382.07 C1701.63,384.80 1733.01,390.64 1748.63,393.75 C1764.09,397.23 1798.43,405.32 1810.10,408.68 C1825.24,413.30 1855.47,422.94 1870.56,427.96 C1885.59,433.37 1915.62,444.60 1930.60,450.42 C1945.50,456.62 1975.08,469.34 1989.76,475.87 C2004.19,482.71 2032.81,496.71 2047.00,503.87 C2060.94,511.35 2083.07,523.37 2102.03,534.96 C2115.40,543.48 2141.99,560.89 2155.21,569.79 C2168.28,579.05 2194.25,597.94 2207.17,607.58 C2219.85,617.52 2244.91,637.67 2257.28,647.86 C2269.32,658.29 2293.10,679.41 2304.83,690.09 C2323.07,707.33 2338.45,723.50 2349.32,734.99 C2359.94,746.80 2380.93,770.74 2391.30,782.87 C2401.44,795.32 2421.45,820.52 2431.33,833.28 C2440.87,846.23 2459.58,872.29 2468.75,885.39 C2477.55,898.65 2494.77,925.31 2503.20,938.72 C2511.39,952.22 2526.39,980.07 2533.79,994.07 C2540.87,1008.32 2554.71,1037.06 2561.48,1051.55 C2567.92,1066.29 2580.48,1095.97 2586.58,1110.90 C2592.30,1125.90 2603.33,1155.95 2608.65,1171.00 C2613.56,1186.10 2623.00,1216.35 2627.52,1231.51 C2629.32,1237.76 2638.51,1277.67 2641.89,1293.17 C2644.91,1308.82 2650.56,1340.28 2653.21,1356.09 C2655.48,1372.05 2659.64,1404.01 2661.52,1420.01 C2663.01,1435.96 2665.59,1467.80 2666.68,1483.69 C2667.38,1499.53 2668.62,1537.59 2668.46,1546.95 C2667.97,1562.76 2666.58,1594.44 2665.69,1610.31 C2664.40,1626.23 2661.43,1658.12 2659.74,1674.09 C2657.66,1690.10 2653.11,1721.99 2650.66,1737.87 C2647.83,1753.60 2641.80,1784.91 2638.60,1800.49 C2635.03,1815.91 2628.54,1843.12 2623.10,1861.78 C2618.38,1876.91 2608.55,1907.11 2603.43,1922.18 C2597.91,1937.21 2586.48,1967.20 2580.57,1982.18 C2574.29,1997.03 2561.40,2026.50 2554.79,2041.12 C2547.87,2055.49 2533.71,2083.99 2526.47,2098.11 C2514.56,2120.31 2508.14,2131.44 2494.87,2152.84 C2486.25,2166.18 2468.66,2192.69 2459.67,2205.87 C2450.32,2218.90 2431.24,2244.80 2421.52,2257.67 C2411.51,2270.27 2391.24,2295.17 2380.99,2307.46 C2370.49,2319.43 2349.26,2343.05 2338.51,2354.70 C2325.07,2368.74 2304.76,2387.97 2293.18,2398.77 C2281.29,2409.33 2257.20,2430.20 2244.99,2440.51 C2232.46,2450.59 2207.11,2470.46 2194.29,2480.27 C2181.30,2489.72 2155.17,2508.24 2142.03,2517.32 C2128.74,2526.02 2101.99,2543.06 2088.55,2551.40 C2080.52,2556.22 2046.93,2574.17 2032.87,2581.49 C2018.56,2588.49 1989.70,2602.17 1975.14,2608.86 C1960.35,2615.22 1930.59,2627.60 1915.63,2633.61 C1900.62,2639.23 1870.54,2650.06 1855.48,2655.28 C1840.37,2660.10 1801.20,2672.09 1794.89,2673.66 C1779.51,2677.32 1748.59,2684.28 1733.05,2687.57 C1717.36,2690.49 1685.82,2695.96 1669.98,2698.51 C1653.99,2700.69 1622.01,2704.66 1606.03,2706.44 C1590.09,2707.83 1558.28,2710.21 1542.40,2711.20 C1526.57,2711.80 1494.96,2712.74 1479.17,2712.39 C1463.35,2711.80 1431.64,2710.21 1415.76,2709.22 C1399.83,2707.83 1367.91,2704.66 1351.92,2702.87 C1335.93,2700.69 1304.10,2695.96 1288.25,2693.41 C1272.56,2690.49 1241.33,2684.28 1225.80,2680.99 C1210.41,2677.32 1188.72,2672.09 1164.67,2664.92 C1149.55,2660.10 1119.38,2650.06 1104.32,2644.84 C1089.30,2639.23 1059.33,2627.60 1044.38,2621.59 C1029.58,2615.22 1000.22,2602.17 985.67,2595.49 C971.36,2588.49 942.99,2574.17 928.92,2566.85 C909.40,2556.22 887.93,2543.06 874.48,2534.73 C861.19,2526.02 834.75,2508.24 821.61,2499.16 C808.62,2489.72 782.81,2470.46 769.99,2460.66 C757.46,2450.59 732.73,2430.20 720.52,2419.89 C708.63,2409.33 685.17,2387.97 673.60,2377.17 C664.85,2368.74 640.67,2343.05 629.93,2331.40 C619.43,2319.43 598.68,2295.17 588.43,2282.88 C578.42,2270.27 558.68,2244.80 548.96,2231.93 C539.60,2218.90 521.26,2192.69 512.28,2179.51 C503.67,2166.18 481.79,2131.44 478.57,2125.87 C475.36,2120.31 456.21,2083.99 448.97,2069.86 C442.05,2055.49 428.52,2026.50 421.92,2011.89 C415.64,1997.03 403.44,1967.20 397.52,1952.23 C392.01,1937.21 381.38,1907.11 376.26,1892.03 C371.54,1876.91 361.38,1843.12 358.46,1831.33 C354.89,1815.91 348.12,1784.91 344.92,1769.33 C342.09,1753.60 336.81,1721.99 334.35,1706.11 C332.27,1690.10 328.50,1658.12 326.81,1642.15 C325.52,1626.23 323.34,1594.44 322.45,1578.58 C321.95,1562.76 321.30,1537.59 321.85,1515.37 C322.55,1499.53 324.33,1467.80 325.42,1451.90 C326.91,1435.96 330.28,1404.01 332.17,1388.01 C334.44,1372.05 339.36,1340.28 342.00,1324.48 C345.01,1308.82 351.41,1277.67 354.80,1262.17 C360.61,1237.76 366.92,1216.35 371.44,1201.20 C376.36,1186.10 386.59,1155.95 391.91,1140.90 C397.62,1125.90 409.45,1095.97 415.55,1081.03 C422.00,1066.29 435.21,1037.06 441.97,1022.57 C449.05,1008.32 463.53,980.07 470.93,966.07 C478.53,952.22 495.15,925.31 503.58,911.90 C512.37,898.65 530.34,872.29 539.51,859.18 C549.05,846.23 568.47,820.52 578.35,807.76 C588.49,795.32 608.99,770.74 619.37,758.61 C629.99,746.80 651.47,723.50 662.33,712.01 C666.85,707.33 696.82,679.41 708.55,668.73 C720.60,658.29 745.01,637.67 757.38,627.47 C770.07,617.52 795.67,597.94 808.58,588.31 C821.65,579.05 847.93,560.89 861.15,552.00 C874.52,543.48 906.86,523.37 915.04,518.83 C928.98,511.35 957.11,496.71 971.30,489.55 C985.73,482.71 1014.84,469.34 1029.52,462.82 C1044.42,456.62 1074.31,444.60 1089.29,438.79 C1104.33,433.37 1134.45,422.94 1149.54,417.92 C1164.68,413.30 1191.49,405.32 1210.37,400.70 C1225.83,397.23 1256.91,390.64 1272.52,387.54 C1288.29,384.80 1319.98,379.70 1335.91,377.34 C1351.91,375.35 1383.88,371.78 1399.84,370.19 C1415.75,369.00 1447.51,367.02 1463.36,366.22 C1471.27,365.98 1492.65,365.43 1494.96,365.43 Z" fill="none" stroke="rgb(255, 127, 127)" stroke-width="126.42" stroke-opacity="1.00" stroke-linejoin="round"/>
<path d="M1516.03,365.43 C1509.61,365.44 1468.58,367.02 1452.72,367.81 C1436.82,369.00 1404.95,371.78 1388.99,373.36 C1372.99,375.35 1341.05,379.70 1325.13,382.07 C1309.36,384.80 1277.98,390.64 1262.36,393.75 C1246.90,397.23 1212.56,405.32 1200.89,408.68 C1185.75,413.30 1155.52,422.94 1140.44,427.96 C1125.40,433.37 1095.38,444.60 1080.39,450.42 C1065.49,456.62 1035.91,469.34 1021.23,475.87 C1006.80,482.71 978.18,496.71 964.00,503.87 C950.06,511.35 927.93,523.37 908.96,534.96 C895.59,543.48 869.00,560.89 855.78,569.79 C842.72,579.05 816.74,597.94 803.83,607.58 C791.14,617.52 766.09,637.67 753.72,647.86 C741.67,658.29 717.89,679.41 706.16,690.09 C687.92,707.33 672.54,723.50 661.68,734.99 C651.06,746.80 630.06,770.74 619.69,782.87 C609.56,795.32 589.54,820.52 579.66,833.28 C570.12,846.23 551.41,872.29 542.24,885.39 C533.44,898.65 516.22,925.31 507.79,938.72 C499.60,952.22 484.60,980.07 477.21,994.07 C470.12,1008.32 456.28,1037.06 449.52,1051.55 C443.07,1066.29 430.52,1095.97 424.41,1110.90 C418.69,1125.90 407.66,1155.95 402.35,1171.00 C397.43,1186.10 387.99,1216.35 383.47,1231.51 C381.68,1237.76 372.48,1277.67 369.10,1293.17 C366.08,1308.82 360.43,1340.28 357.79,1356.09 C355.51,1372.05 351.35,1404.01 349.47,1420.01 C347.98,1435.96 345.40,1467.80 344.31,1483.69 C343.62,1499.53 342.37,1537.59 342.53,1546.95 C343.02,1562.76 344.41,1594.44 345.30,1610.31 C346.59,1626.23 349.57,1658.12 351.25,1674.09 C353.34,1690.10 357.88,1721.99 360.34,1737.87 C363.16,1753.60 369.19,1784.91 372.39,1800.49 C375.96,1815.91 382.45,1843.12 387.89,1861.78 C392.61,1876.91 402.45,1907.11 407.56,1922.18 C413.08,1937.21 424.51,1967.20 430.42,1982.18 C436.71,1997.03 449.60,2026.50 456.20,2041.12 C463.12,2055.49 477.28,2083.99 484.53,2098.11 C496.43,2120.31 502.86,2131.44 516.13,2152.84 C524.74,2166.18 542.34,2192.69 551.32,2205.87 C560.67,2218.90 579.75,2244.80 589.48,2257.67 C599.49,2270.27 619.75,2295.17 630.00,2307.46 C640.50,2319.43 661.74,2343.05 672.48,2354.70 C685.92,2368.74 706.24,2387.97 717.81,2398.77 C729.70,2409.33 753.80,2430.20 766.01,2440.51 C778.53,2450.59 803.88,2470.46 816.70,2480.27 C829.69,2489.72 855.82,2508.24 868.96,2517.32 C882.26,2526.02 909.00,2543.06 922.45,2551.40 C930.47,2556.22 964.06,2574.17 978.12,2581.49 C992.43,2588.49 1021.29,2602.17 1035.85,2608.86 C1050.65,2615.22 1080.41,2627.60 1095.36,2633.61 C1110.37,2639.23 1140.45,2650.06 1155.51,2655.28 C1170.63,2660.10 1209.79,2672.09 1216.10,2673.66 C1231.48,2677.32 1262.40,2684.28 1277.94,2687.57 C1293.63,2690.49 1325.17,2695.96 1341.02,2698.51 C1357.00,2700.69 1388.98,2704.66 1404.97,2706.44 C1420.90,2707.83 1452.71,2710.21 1468.59,2711.20 C1484.42,2711.80 1516.03,2712.74 1531.82,2712.39 C1547.65,2711.80 1579.35,2710.21 1595.23,2709.22 C1611.16,2707.83 1643.08,2704.66 1659.07,2702.87 C1675.06,2700.69 1706.89,2695.96 1722.74,2693.41 C1738.43,2690.49 1769.66,2684.28 1785.20,2680.99 C1800.58,2677.32 1822.27,2672.09 1846.32,2664.92 C1861.44,2660.10 1891.62,2650.06 1906.68,2644.84 C1921.69,2639.23 1951.66,2627.60 1966.62,2621.59 C1981.42,2615.22 2010.77,2602.17 2025.32,2595.49 C2039.63,2588.49 2068.01,2574.17 2082.07,2566.85 C2101.59,2556.22 2123.06,2543.06 2136.51,2534.73 C2149.81,2526.02 2176.24,2508.24 2189.39,2499.16 C2202.37,2489.72 2228.18,2470.46 2241.00,2460.66 C2253.53,2450.59 2278.27,2430.20 2290.47,2419.89 C2302.36,2409.33 2325.83,2387.97 2337.40,2377.17 C2346.14,2368.74 2370.33,2343.05 2381.07,2331.40 C2391.56,2319.43 2412.31,2295.17 2422.57,2282.88 C2432.58,2270.27 2452.31,2244.80 2462.03,2231.93 C2471.39,2218.90 2489.73,2192.69 2498.71,2179.51 C2507.32,2166.18 2529.21,2131.44 2532.42,2125.87 C2535.63,2120.31 2554.78,2083.99 2562.02,2069.86 C2568.94,2055.49 2582.47,2026.50 2589.07,2011.89 C2595.36,1997.03 2607.56,1967.20 2613.47,1952.23 C2618.98,1937.21 2629.62,1907.11 2634.73,1892.03 C2639.45,1876.91 2649.61,1843.12 2652.54,1831.33 C2656.10,1815.91 2662.87,1784.91 2666.07,1769.33 C2668.90,1753.60 2674.19,1721.99 2676.64,1706.11 C2678.73,1690.10 2682.50,1658.12 2684.18,1642.15 C2685.47,1626.23 2687.65,1594.44 2688.55,1578.58 C2689.04,1562.76 2689.70,1537.59 2689.14,1515.37 C2688.45,1499.53 2686.66,1467.80 2685.57,1451.90 C2684.08,1435.96 2680.71,1404.01 2678.82,1388.01 C2676.55,1372.05 2671.64,1340.28 2668.99,1324.48 C2665.98,1308.82 2659.58,1277.67 2656.20,1262.17 C2650.39,1237.76 2644.07,1216.35 2639.55,1201.20 C2634.63,1186.10 2624.40,1155.95 2619.08,1140.90 C2613.37,1125.90 2601.55,1095.97 2595.44,1081.03 C2588.99,1066.29 2575.78,1037.06 2569.02,1022.57 C2561.94,1008.32 2547.46,980.07 2540.06,966.07 C2532.46,952.22 2515.85,925.31 2507.42,911.90 C2498.62,898.65 2480.65,872.29 2471.48,859.18 C2461.94,846.23 2442.52,820.52 2432.64,807.76 C2422.51,795.32 2402.00,770.74 2391.62,758.61 C2381.01,746.80 2359.52,723.50 2348.66,712.01 C2344.14,707.33 2314.17,679.41 2302.44,668.73 C2290.40,658.29 2265.98,637.67 2253.61,627.47 C2240.92,617.52 2215.32,597.94 2202.41,588.31 C2189.35,579.05 2163.06,560.89 2149.85,552.00 C2136.47,543.48 2104.14,523.37 2095.95,518.83 C2082.01,511.35 2053.88,496.71 2039.69,489.55 C2025.26,482.71 1996.15,469.34 1981.48,462.82 C1966.57,456.62 1936.69,444.60 1921.70,438.79 C1906.66,433.37 1876.54,422.94 1861.45,417.92 C1846.31,413.30 1819.50,405.32 1800.62,400.70 C1785.16,397.23 1754.08,390.64 1738.47,387.54 C1722.70,384.80 1691.01,379.70 1675.09,377.34 C1659.08,375.35 1627.11,371.78 1611.15,370.19 C1595.24,369.00 1563.49,367.02 1547.63,366.22 C1539.73,365.98 1518.35,365.43 1516.03,365.43 Z" fill="none" stroke="rgb(255, 127, 127)" stroke-width="126.42" stroke-opacity="1.00" stroke-linejoin="round"/>
<path d="M1222.22,1214.81 L1222.22,1600.00" fill="none" stroke="rgb(255, 127, 127)" stroke-width="250.00" stroke-opacity="1.00" stroke-linejoin="round"/>
<path d="M1788.40,1214.81 L1788.40,1600.00" fill="none" stroke="rgb(255, 127, 127)" stroke-width="250.00" stroke-opacity="1.00" stroke-linejoin="round"/>
<path d="M913.58,1748.15 L1041.98,1748.15" fill="none" stroke="rgb(255, 127, 127)" stroke-width="120.00" stroke-opacity="1.00" stroke-linejoin="round"/>
<path d="M2097.04,1748.15 L1968.64,1748.15" fill="none" stroke="rgb(255, 127, 127)" stroke-width="120.00" stroke-opacity="1.00" stroke-linejoin="round"/>
<path d="M1223.55,1222.31 L1223.55,1354.96" fill="none" stroke="rgb(255, 255, 255)" stroke-width="150.00" stroke-opacity="1.00" stroke-linejoin="round"/>
<path d="M1787.07,1222.31 L1787.07,1354.96" fill="none" stroke="rgb(255, 255, 255)" stroke-width="150.00" stroke-opacity="1.00" stroke-linejoin="round"/>
<path d="M1221.07,1584.30 L1221.07,1584.30" fill="none" stroke="rgb(255, 255, 255)" stroke-width="170.00" stroke-opacity="1.00" stroke-linejoin="round"/>
<path d="M1789.55,1584.30 L1789.55,1584.30" fill="none" stroke="rgb(255, 255, 255)" stroke-width="170.00" stroke-opacity="1.00" stroke-linejoin="round"/>
</g>
</svg>
